<svg width="25" height="25" viewBox="0 0 25 25" fill="none" xmlns="http://www.w3.org/2000/svg">
<path d="M12.9103 2.37044C16.1466 2.37044 16.5186 2.38905 17.802 2.44487C18.9738 2.50069 19.6247 2.68677 20.0525 2.85423C20.6105 3.07752 21.0197 3.33803 21.4475 3.766C21.8753 4.19398 22.1357 4.58473 22.3589 5.16157C22.5263 5.58954 22.7309 6.22219 22.7681 7.41307C22.8239 8.69699 22.8425 9.06915 22.8425 12.3069C22.8425 15.5446 22.8239 15.9167 22.7681 17.2006C22.7123 18.3729 22.5263 19.0242 22.3589 19.4521C22.1357 20.0104 21.8753 20.4197 21.4475 20.8477C21.0197 21.2757 20.6291 21.5362 20.0525 21.7595C19.6247 21.9269 18.9924 22.1316 17.802 22.1688C16.5186 22.2247 16.1466 22.2433 12.9103 22.2433C9.67393 22.2433 9.30195 22.2247 8.01857 22.1688C6.84679 22.113 6.19579 21.9269 5.768 21.7595C5.21001 21.5362 4.80081 21.2757 4.37302 20.8477C3.94523 20.4197 3.68485 20.029 3.46166 19.4521C3.29426 19.0242 3.08965 18.3915 3.05245 17.2006C2.99665 15.9167 2.97805 15.5446 2.97805 12.3069C2.97805 9.06915 2.99665 8.69699 3.05245 7.41307C3.10825 6.2408 3.29426 5.58954 3.46166 5.16157C3.68485 4.60334 3.94523 4.19398 4.37302 3.766C4.80081 3.33803 5.19141 3.07752 5.768 2.85423C6.19579 2.68677 6.82819 2.48208 8.01857 2.44487C9.30195 2.38905 9.67393 2.37044 12.9103 2.37044ZM12.9103 0.193359C9.61813 0.193359 9.20895 0.211967 7.92557 0.26779C6.6422 0.323612 5.74941 0.528295 4.98682 0.826015C4.18704 1.14234 3.51745 1.55171 2.84786 2.22158C2.17827 2.89145 1.76908 3.56132 1.45289 4.36144C1.15529 5.12435 0.950698 6.01751 0.894899 7.30143C0.8391 8.58535 0.820496 9.01332 0.820496 12.2882C0.820496 15.5818 0.8391 15.9911 0.894899 17.2751C0.950698 18.559 1.15529 19.4521 1.45289 20.215C1.76908 21.0152 2.17827 21.685 2.84786 22.3549C3.51745 23.0248 4.18704 23.4341 4.98682 23.7505C5.74941 24.0482 6.6422 24.2529 7.92557 24.3087C9.20895 24.3645 9.63673 24.3831 12.9103 24.3831C16.2024 24.3831 16.6116 24.3645 17.895 24.3087C19.1784 24.2529 20.0711 24.0482 20.8337 23.7505C21.6335 23.4341 22.3031 23.0248 22.9727 22.3549C23.6423 21.685 24.0514 21.0152 24.3676 20.215C24.6652 19.4521 24.8698 18.559 24.9256 17.2751C24.9814 15.9911 25 15.5632 25 12.2882C25 9.01332 24.9814 8.58535 24.9256 7.30143C24.8698 6.01751 24.6652 5.12435 24.3676 4.36144C24.0514 3.56132 23.6423 2.89145 22.9727 2.22158C22.3031 1.55171 21.6335 1.14234 20.8337 0.826015C20.0711 0.528295 19.1784 0.323612 17.895 0.26779C16.6116 0.211967 16.2024 0.193359 12.9103 0.193359Z" fill="white"/>
<path d="M12.9103 6.0918C9.46935 6.0918 6.698 8.88293 6.698 12.3067C6.698 15.7305 9.48795 18.5216 12.9103 18.5216C16.3512 18.5216 19.1226 15.7305 19.1226 12.3067C19.1226 8.88293 16.3512 6.0918 12.9103 6.0918ZM12.9103 16.3445C10.6783 16.3445 8.87417 14.5396 8.87417 12.3067C8.87417 10.0738 10.6783 8.26888 12.9103 8.26888C15.1422 8.26888 16.9464 10.0738 16.9464 12.3067C16.9464 14.5396 15.1422 16.3445 12.9103 16.3445Z" fill="white"/>
<path d="M19.3644 7.28266C20.1656 7.28266 20.8151 6.63285 20.8151 5.83127C20.8151 5.02969 20.1656 4.37988 19.3644 4.37988C18.5631 4.37988 17.9136 5.02969 17.9136 5.83127C17.9136 6.63285 18.5631 7.28266 19.3644 7.28266Z" fill="white"/>
</svg>
