<svg width="26" height="22" viewBox="0 0 26 22" fill="none" xmlns="http://www.w3.org/2000/svg">
<path d="M25.9909 3.00561C25.0423 3.43359 24.0194 3.7127 22.9406 3.84295C24.0379 3.19169 24.8749 2.13106 25.2841 0.902965C24.2612 1.51701 23.108 1.96359 21.899 2.18688C20.9318 1.14486 19.5368 0.512207 18.0117 0.512207C15.0729 0.512207 12.6922 2.89397 12.6922 5.83396C12.6922 6.24332 12.748 6.65269 12.8224 7.04344C8.39567 6.82015 4.47115 4.6989 1.8486 1.4798C1.38361 2.26131 1.12321 3.17308 1.12321 4.15928C1.12321 6.00142 2.07179 7.63889 3.48536 8.58787C2.61118 8.56926 1.7928 8.32736 1.06741 7.918C1.06741 7.93661 1.06741 7.95521 1.06741 7.99243C1.06741 10.5789 2.90878 12.7187 5.34533 13.2211C4.89894 13.3514 4.43395 13.4072 3.95036 13.4072C3.61556 13.4072 3.28076 13.37 2.94597 13.3142C3.61556 15.4354 5.58712 16.9613 7.91207 17.0171C6.08931 18.4499 3.80156 19.3058 1.30921 19.3058C0.881415 19.3058 0.453625 19.2872 0.0444336 19.2314C2.40659 20.7386 5.19652 21.6317 8.20966 21.6317C18.0117 21.6317 23.3498 13.5189 23.3498 6.48522C23.3498 6.26193 23.3498 6.02003 23.3312 5.79674C24.3913 5.01523 25.2841 4.06624 25.9909 3.00561Z" fill="white"/>
</svg>
