<svg width="30" height="18" viewBox="0 0 30 18" fill="none" xmlns="http://www.w3.org/2000/svg">
<path fill-rule="evenodd" clip-rule="evenodd" d="M14.6409 16.9988H16.4265C16.4265 16.9988 16.9659 16.9429 17.2449 16.6452C17.5053 16.3661 17.4867 15.8637 17.4867 15.8637C17.4867 15.8637 17.4495 13.4633 18.5655 13.1098C19.6628 12.7563 21.0764 15.4357 22.5644 16.4592C23.6989 17.2407 24.5545 17.0732 24.5545 17.0732L28.5535 17.0174C28.5535 17.0174 30.6366 16.8871 29.6508 15.2497C29.5764 15.1194 29.0742 14.0402 26.6749 11.8073C24.1639 9.48133 24.4987 9.85348 27.5305 5.83426C29.3718 3.37806 30.0972 1.88946 29.874 1.2382C29.6508 0.62415 28.3117 0.791618 28.3117 0.791618L23.8105 0.828833C23.8105 0.828833 23.4758 0.791618 23.234 0.940478C22.9922 1.08934 22.8434 1.42427 22.8434 1.42427C22.8434 1.42427 22.1366 3.32224 21.188 4.9411C19.1606 8.30906 18.3609 8.47652 18.0261 8.27184C17.2635 7.78805 17.4495 6.29944 17.4495 5.23882C17.4495 1.94528 17.9517 0.568327 16.4823 0.214785C15.9987 0.103139 15.6267 0.0101021 14.3805 0.0101021C12.781 -0.00850538 11.4232 0.0101019 10.642 0.40086C10.1212 0.642758 9.73063 1.21959 9.97242 1.2382C10.27 1.27541 10.9396 1.42427 11.293 1.90807C11.758 2.54073 11.7394 3.93629 11.7394 3.93629C11.7394 3.93629 11.9998 7.82526 11.1256 8.30906C10.5118 8.64399 9.69343 7.95551 7.90786 4.86666C6.99648 3.28503 6.30829 1.53592 6.30829 1.53592C6.30829 1.53592 6.1781 1.20098 5.9363 1.03352C5.65731 0.828833 5.24812 0.754403 5.24812 0.754403L0.9702 0.77301C0.9702 0.77301 0.319213 0.791618 0.0960175 1.07073C-0.108579 1.31263 0.0774178 1.83364 0.0774178 1.83364C0.0774178 1.83364 3.42535 9.66741 7.21968 13.6122C10.6978 17.2407 14.6409 16.9988 14.6409 16.9988Z" fill="white"/>
</svg>
