<svg width="60" height="60" viewBox="0 0 60 60" fill="none" xmlns="http://www.w3.org/2000/svg">
<circle cx="30" cy="30" r="30" transform="rotate(90 30 30)" fill="#140F4F"/>
<path d="M20.9149 42.843C19.7237 43.9946 19.6915 45.8938 20.843 47.0851C21.9946 48.2763 23.8938 48.3085 25.0851 47.157L20.9149 42.843ZM38 30.5L40.0851 32.657C40.6698 32.0917 41 31.3133 41 30.5C41 29.6867 40.6698 28.9083 40.0851 28.343L38 30.5ZM25.0851 13.843C23.8938 12.6915 21.9946 12.7237 20.843 13.9149C19.6915 15.1062 19.7237 17.0054 20.9149 18.157L25.0851 13.843ZM25.0851 47.157L40.0851 32.657L35.9149 28.343L20.9149 42.843L25.0851 47.157ZM40.0851 28.343L25.0851 13.843L20.9149 18.157L35.9149 32.657L40.0851 28.343Z" fill="white"/>
</svg>
