<svg width="60" height="60" viewBox="0 0 60 60" fill="none" xmlns="http://www.w3.org/2000/svg">
<circle cx="30" cy="30" r="30" transform="rotate(-90 30 30)" fill="#140F4F"/>
<path d="M39.0851 17.157C40.2763 16.0054 40.3085 14.1062 39.157 12.9149C38.0054 11.7237 36.1062 11.6915 34.9149 12.843L39.0851 17.157ZM22 29.5L19.9149 27.343C19.3302 27.9083 19 28.6867 19 29.5C19 30.3133 19.3302 31.0917 19.9149 31.657L22 29.5ZM34.9149 46.157C36.1062 47.3085 38.0054 47.2763 39.157 46.0851C40.3085 44.8938 40.2763 42.9946 39.0851 41.843L34.9149 46.157ZM34.9149 12.843L19.9149 27.343L24.0851 31.657L39.0851 17.157L34.9149 12.843ZM19.9149 31.657L34.9149 46.157L39.0851 41.843L24.0851 27.343L19.9149 31.657Z" fill="white"/>
</svg>
