<svg width="21" height="21" viewBox="0 0 21 21" fill="none" xmlns="http://www.w3.org/2000/svg">
<circle cx="10.5" cy="10.5" r="9.5" stroke="#140F4F" stroke-width="2"/>
<path d="M10.7661 15.14C9.77673 15.14 8.88073 14.9253 8.07806 14.496C7.28473 14.0573 6.6594 13.4553 6.20206 12.69C5.75406 11.9247 5.53006 11.0613 5.53006 10.1C5.53006 9.13867 5.75873 8.27533 6.21606 7.51C6.6734 6.74467 7.29873 6.14733 8.09206 5.718C8.89473 5.27933 9.79073 5.06 10.7801 5.06C11.5827 5.06 12.3154 5.2 12.9781 5.48C13.6407 5.76 14.2007 6.166 14.6581 6.698L13.4821 7.804C12.7727 7.03867 11.9001 6.656 10.8641 6.656C10.1921 6.656 9.59006 6.80533 9.05806 7.104C8.52606 7.39333 8.11073 7.79933 7.81206 8.322C7.5134 8.84467 7.36406 9.43733 7.36406 10.1C7.36406 10.7627 7.5134 11.3553 7.81206 11.878C8.11073 12.4007 8.52606 12.8113 9.05806 13.11C9.59006 13.3993 10.1921 13.544 10.8641 13.544C11.9001 13.544 12.7727 13.1567 13.4821 12.382L14.6581 13.502C14.2007 14.034 13.6361 14.44 12.9641 14.72C12.3014 15 11.5687 15.14 10.7661 15.14Z" fill="#140F4F"/>
</svg>
