<?xml version="1.0" encoding="utf-8"?>
<!-- Generator: Adobe Illustrator 22.1.0, SVG Export Plug-In . SVG Version: 6.00 Build 0)  -->
<svg version="1.1" id="Layer_1" xmlns="http://www.w3.org/2000/svg" xmlns:xlink="http://www.w3.org/1999/xlink" x="0px" y="0px"
	 viewBox="0 0 1280 821" style="enable-background:new 0 0 1280 821;" xml:space="preserve">
<style type="text/css">
	.st0{fill:#FFFFFF;}
</style>
<g transform="translate(0.000000,821.000000) scale(0.100000,-0.100000)">
	<path class="st0" d="M615,8204c-129-27-208-67-284-143c-31-31-72-83-90-114c-17-30-59-83-92-118c-72-73-122-170-138-267
		c-8-48-11-1050-9-3612C5,476,5,404,24,355C87,193,203,79,360,24C414,5,544,5,6305,5c5037,0,5897,2,5940,14c129,37,248,129,314,244
		c17,30,59,83,92,118c72,73,122,170,138,267c8,48,11,1050,9,3612c-3,3472-3,3546-22,3595c-62,159-172,269-331,331
		c-49,19-148,19-5930,20C3281,8207,626,8206,615,8204z M11210,7500c-1-8-4713-2863-4724-2863c-10,1-4703,2846-4718,2861
		c-4,4,2119,7,4718,7C9084,7505,11210,7503,11210,7500z M12138,2614l-3-1556l-850,767c-467,422-1394,1258-2058,1858
		c-1024,925-1205,1092-1190,1101c85,47,4072,2471,4083,2482c13,13,15-158,18-1541C12139,4870,12139,3470,12138,2614z M2765,5890
		c1144-694,2081-1263,2083-1265c1-1-84-81-190-177C4263,4091,694,867,678,852c-17-14-18,137-18,3153c0,2533,3,3165,13,3157
		C679,7157,1621,6584,2765,5890z M8121,4393c157-142,791-715,1409-1273s1457-1316,1865-1683c673-608,740-672,743-702
		c3-31,1-33-21-27c-14,4-436,378-938,832C9561,3001,8089,4330,7928,4474c-154,139-156,141-136,159c11,9,25,17,32,17
		C7830,4650,7964,4534,8121,4393z M8403,3757c452-408,1382-1248,2067-1866s1260-1137,1277-1155l33-31H6350c-2987,0-5429,3-5427,7
		c2,6,899,818,3062,2772c572,516,1054,952,1071,968l31,29l509-309c280-170,525-317,544-327c55-29,249-33,321-7
		c30,11,290,164,579,340s528,321,533,321C7577,4500,7950,4166,8403,3757z"/>
</g>
</svg>
