<?xml version="1.0" encoding="utf-8"?>
<!-- Generator: Adobe Illustrator 22.1.0, SVG Export Plug-In . SVG Version: 6.00 Build 0)  -->
<svg version="1.1" id="Layer_1" xmlns="http://www.w3.org/2000/svg" xmlns:xlink="http://www.w3.org/1999/xlink" x="0px" y="0px"
	 viewBox="0 0 1030 1280" style="enable-background:new 0 0 1030 1280;" xml:space="preserve">
<style type="text/css">
	.st0{fill:#FFFFFF;}
</style>
<g transform="translate(0.000000,1280.000000) scale(0.100000,-0.100000)">
	<path class="st0" d="M8646,12790c-60-16-149-67-194-113c-71-72-2120-2778-2157-2848c-100-191-80-414,53-578c19-24,247-213,506-421
		c488-391,506-408,555-521c50-114,66-279,42-430c-28-171-113-399-240-644c-170-327-201-370-1122-1576l-874-1147l-225-237
		c-442-467-720-700-955-801c-87-38-93-39-205-39c-123,0-172,14-246,70c-17,13-201,233-407,488s-390,476-408,492
		c-163,138-410,119-560-41c-53-57-2097-2749-2136-2813c-112-186-89-448,55-608c31-35,842-641,1021-763C1431,68,1930-30,2427,10
		c1399,114,2984,1146,4542,2960c1197,1393,2177,2928,2733,4280c351,853,541,1627,589,2400c49,785-113,1575-418,2037
		c-50,76-821,973-876,1019c-61,52-150,86-235,90C8720,12798,8668,12795,8646,12790z"/>
</g>
</svg>
