<svg width="28" height="38" viewBox="0 0 28 38" fill="none" xmlns="http://www.w3.org/2000/svg">
<path d="M8.34697 0.699063C8.11915 0.762344 5.48243 2.29797 5.32634 2.45828C4.97618 2.81266 4.89603 3.33156 5.1154 3.76188C5.34321 4.20484 9.96275 12.1909 10.0724 12.3344C10.3171 12.6423 10.8571 12.8237 11.2368 12.7183C11.4309 12.6677 14.0296 11.1784 14.2532 10.9928C14.5401 10.7523 14.6962 10.2377 14.5949 9.86641C14.5696 9.77359 13.439 7.76969 12.0806 5.41562C10.0809 1.94781 9.57462 1.09984 9.41853 0.956407C9.13166 0.686407 8.72666 0.589375 8.34697 0.699063Z" fill="white"/>
<path d="M3.63039 4.3736C2.72758 4.92204 2.27617 5.2511 1.79523 5.71095C0.386171 7.05673 0.0107025 8.39407 0.251171 11.1742C0.597109 15.1483 2.56727 20.4597 5.52039 25.3703C8.29211 29.9772 11.6207 33.7909 14.6962 35.8834C16.2782 36.9592 17.2612 37.3305 18.5352 37.3305C19.3874 37.3305 20.0962 37.1617 21.0918 36.7188C21.5559 36.5078 22.6316 35.9383 22.6696 35.8792C22.6823 35.8539 17.8729 27.4755 17.6156 27.0705C17.5902 27.0283 17.5438 27.0367 17.4173 27.1C17.1262 27.2477 16.6452 27.3911 16.2698 27.4375C14.8902 27.6063 13.2576 26.8131 11.743 25.2353C9.86992 23.2863 8.38492 20.4133 7.92508 17.8399C7.58336 15.9499 7.8407 14.4269 8.66336 13.4608C8.80258 13.2963 9.27086 12.9039 9.36367 12.8744C9.39742 12.8617 8.4482 11.1827 6.87461 8.44891C5.47399 6.02735 4.31805 4.03188 4.30117 4.01501C4.2843 3.99392 3.98477 4.15845 3.63039 4.3736Z" fill="white"/>
<path d="M21.6782 23.5141C21.4462 23.5436 21.4842 23.5267 19.9359 24.4169C19.244 24.8134 18.6112 25.2016 18.5311 25.2775C18.2273 25.5686 18.1007 26.058 18.2273 26.4292C18.299 26.6402 23.1 34.9764 23.2772 35.1958C23.5767 35.5755 24.1715 35.6894 24.6525 35.4573C25.0153 35.2844 27.2428 33.9934 27.4157 33.8542C27.652 33.6644 27.7954 33.348 27.7954 33.002C27.7954 32.8459 27.7743 32.6603 27.7448 32.597C27.6014 32.2595 22.7878 23.9781 22.657 23.8431C22.3997 23.5731 22.0622 23.4592 21.6782 23.5141Z" fill="white"/>
</svg>
